<svg width="103" height="35" viewBox="0 0 103 35" fill="none" xmlns="http://www.w3.org/2000/svg">
<path d="M45.235 24.5V11.4091H53.9027V13.6911H48.0028V16.8104H53.3274V19.0923H48.0028V24.5H45.235ZM58.4362 11.4091V24.5H55.7132V11.4091H58.4362ZM63.4172 24.6854C62.7908 24.6854 62.2326 24.5767 61.7425 24.3594C61.2524 24.1378 60.8647 23.8118 60.5792 23.3814C60.2979 22.9467 60.1573 22.4055 60.1573 21.7578C60.1573 21.2124 60.2574 20.7543 60.4577 20.3835C60.658 20.0128 60.9307 19.7145 61.2759 19.4886C61.6211 19.2628 62.0131 19.0923 62.452 18.9773C62.8952 18.8622 63.3597 18.7812 63.8455 18.7344C64.4165 18.6747 64.8767 18.6193 65.2262 18.5682C65.5756 18.5128 65.8292 18.4318 65.9868 18.3253C66.1445 18.2187 66.2233 18.0611 66.2233 17.8523V17.8139C66.2233 17.4091 66.0955 17.0959 65.8398 16.8743C65.5884 16.6527 65.2304 16.5419 64.7659 16.5419C64.2759 16.5419 63.886 16.6506 63.5962 16.8679C63.3064 17.081 63.1147 17.3494 63.0209 17.6733L60.5024 17.4688C60.6303 16.8722 60.8817 16.3565 61.2567 15.9219C61.6317 15.483 62.1154 15.1463 62.7077 14.9119C63.3043 14.6733 63.9946 14.554 64.7787 14.554C65.3242 14.554 65.8462 14.6179 66.3448 14.7457C66.8476 14.8736 67.2929 15.0717 67.6807 15.3402C68.0728 15.6087 68.3817 15.9538 68.6076 16.3757C68.8334 16.7933 68.9463 17.294 68.9463 17.8778V24.5H66.364V23.1385H66.2872C66.1296 23.4453 65.9186 23.7159 65.6544 23.9503C65.3902 24.1804 65.0728 24.3615 64.702 24.4936C64.3313 24.6214 63.903 24.6854 63.4172 24.6854ZM64.1971 22.8061C64.5976 22.8061 64.9513 22.7273 65.2581 22.5696C65.5649 22.4077 65.8057 22.1903 65.9804 21.9176C66.1551 21.6449 66.2425 21.3359 66.2425 20.9908V19.9489C66.1573 20.0043 66.0401 20.0554 65.8909 20.1023C65.7461 20.1449 65.582 20.1854 65.3988 20.2237C65.2155 20.2578 65.0323 20.2898 64.849 20.3196C64.6658 20.3452 64.4996 20.3686 64.3505 20.3899C64.0309 20.4368 63.7517 20.5114 63.5131 20.6136C63.2745 20.7159 63.0891 20.8544 62.957 21.0291C62.8249 21.1996 62.7588 21.4126 62.7588 21.6683C62.7588 22.0391 62.8931 22.3224 63.1615 22.5185C63.4343 22.7102 63.7794 22.8061 64.1971 22.8061ZM79.2279 17.4815L76.735 17.6349C76.6924 17.4219 76.6008 17.2301 76.4602 17.0597C76.3196 16.8849 76.1342 16.7464 75.9041 16.6442C75.6782 16.5376 75.4076 16.4844 75.0923 16.4844C74.6704 16.4844 74.3146 16.5739 74.0248 16.7528C73.735 16.9276 73.5902 17.1619 73.5902 17.456C73.5902 17.6903 73.6839 17.8885 73.8714 18.0504C74.0589 18.2124 74.3806 18.3423 74.8366 18.4403L76.6136 18.7983C77.5681 18.9943 78.2798 19.3097 78.7485 19.7443C79.2173 20.179 79.4517 20.75 79.4517 21.4574C79.4517 22.1009 79.262 22.6655 78.8828 23.1513C78.5078 23.6371 77.9922 24.0163 77.3359 24.2891C76.6839 24.5575 75.9318 24.6918 75.0795 24.6918C73.7798 24.6918 72.7443 24.4212 71.973 23.88C71.2059 23.3345 70.7564 22.593 70.6243 21.6555L73.3025 21.5149C73.3835 21.9112 73.5795 22.2138 73.8906 22.4226C74.2017 22.6271 74.6001 22.7294 75.0859 22.7294C75.5632 22.7294 75.9467 22.6378 76.2365 22.4545C76.5305 22.267 76.6797 22.0263 76.6839 21.7322C76.6797 21.4851 76.5752 21.2827 76.3707 21.125C76.1662 20.9631 75.8508 20.8395 75.4247 20.7543L73.7244 20.4155C72.7656 20.2237 72.0518 19.8913 71.5831 19.4183C71.1186 18.9453 70.8863 18.3423 70.8863 17.6094C70.8863 16.9787 71.0568 16.4354 71.3977 15.9794C71.7429 15.5234 72.2265 15.1719 72.8487 14.9247C73.4751 14.6776 74.2081 14.554 75.0475 14.554C76.2876 14.554 77.2635 14.8161 77.9751 15.3402C78.691 15.8643 79.1086 16.5781 79.2279 17.4815ZM83.8893 18.8239V24.5H81.1663V11.4091H83.8126V16.4141H83.9277C84.1493 15.8345 84.5072 15.3807 85.0016 15.0526C85.4959 14.7202 86.1159 14.554 86.8616 14.554C87.5435 14.554 88.1379 14.7031 88.645 15.0014C89.1564 15.2955 89.5527 15.7195 89.8339 16.2734C90.1195 16.8232 90.2601 17.4815 90.2558 18.2486V24.5H87.5328V18.7344C87.5371 18.1293 87.3837 17.6584 87.0726 17.3217C86.7658 16.9851 86.3354 16.8168 85.7814 16.8168C85.4107 16.8168 85.0825 16.8956 84.797 17.0533C84.5158 17.2109 84.2942 17.4411 84.1322 17.7436C83.9746 18.0419 83.8936 18.402 83.8893 18.8239Z" fill="white"/>
<g clip-path="url(#clip0_6_499)">
<path d="M17 3.36166C9.19419 3.36166 2.86169 9.69416 2.86169 17.5C2.86169 25.3058 9.19419 31.6383 17 31.6383C24.8059 31.6383 31.1384 25.3058 31.1384 17.5C31.1384 9.69416 24.8059 3.36166 17 3.36166ZM16.2634 25.83V19.965H12.495C11.9709 19.965 11.6167 19.3983 11.8717 18.9308L17.085 8.77333C17.4109 8.1075 18.4167 8.34833 18.4167 9.09916V15.035H22.015C22.5392 15.035 22.8792 15.5875 22.6525 16.055L17.6092 26.1417C17.2692 26.8217 16.2634 26.5808 16.2634 25.83Z" fill="#D64A4A"/>
</g>
<defs>
<clipPath id="clip0_6_499">
<rect width="34" height="34" fill="white" transform="translate(0 0.5)"/>
</clipPath>
</defs>
</svg>
